# xmcd
#
# Track frame offsets:
# 150
# 33656
# 72607
# 76710
# 129035
# 173544
# 175644
# 222175
# 224753
# 305827
#
# Disc length: 4128 seconds
#
#
# Revision: 0
# Processed by: cddbd v1.5.2PL0 Copyright (c) Steve Scherf et al.
# Submitted via: FreeRIP 2.96 
#
DISCID=8a101e0a
DTITLE=Jan Seghers - Ein allzu schönes Mädchen
DYEAR=2004
DGENRE=Hörbuch
TTITLE0=24 Tage und Naechte mit Manon
TTITLE1=25 Manche Polizisten sind Freunde
TTITLE2=26 Musik
TTITLE3=27 Ploegers panische Furcht
TTITLE4=28 Eine neue Mitbewohnerin
TTITLE5=29 Musik
TTITLE6=30 Marthaler verhandelt
TTITLE7=31 Musik
TTITLE8=32 Der Grosseinsatz
TTITLE9=33 Musik
EXTD=gelesen von Miroslav Nemec
EXTT0=
EXTT1=
EXTT2=
EXTT3=
EXTT4=
EXTT5=
EXTT6=
EXTT7=
EXTT8=
EXTT9=
PLAYORDER=
